# xmcd
# Copyright
#
# Track frame offsets:
#	180
#	23944
#	52408
#	68238
#	93318
#	117126
#	137219
#	160248
#	181706
#	201564
#	219597
#	245142
#	264190
#	290525
#
# Disc length: 4139 seconds
#
# Revision: 3
# Processed by: cddbd v1.4b41PL1 Copyright (c) Steve Scherf et al.
# Submitted via: CdAid 2001.04.01.00
#
DISCID=d910290e
DTITLE=Fleming, Brown, and Peterson - Early in the Morning
DYEAR=1900
DGENRE=
TTITLE0=That's a Plenty
TTITLE1=Early in the Morning
TTITLE2=Church St. Sobbin' Blues
TTITLE3=Am I Blue
TTITLE4=Algiers Strut
TTITLE5=Nobody Knows You
TTITLE6=Papa Dip
TTITLE7=Perdido St. Blues
TTITLE8=In the Dark
TTITLE9=I'm Gonna Gitcha
TTITLE10=When My Dreamboat Comes Home
TTITLE11=I Got What it Takes
TTITLE12=Revolutionary Blues
TTITLE13=Le Marchand de Poissons
EXTD=
EXTT0=
EXTT1=
EXTT2=
EXTT3=
EXTT4=
EXTT5=
EXTT6=
EXTT7=
EXTT8=
EXTT9=
EXTT10=
EXTT11=
EXTT12=
EXTT13=
PLAYORDER=
